# xmcd CD database file
#
# Track frame offsets:
#	182
#	11205
#	19095
#	34052
#	42222
#	53222
#	65067
#	77052
#	86237
#	97342
#	105412
#	116070
#	124127
#	136952
#	145917
#	154842
#	166945
#	175857
#	186665
#	196932
#	207525
#	216667
#	226577
#	240730
#	251287
#	260110
#	271780
#	280342
#	289662
#	298420
#
# Disc length: 4092 seconds
#
# Revision: 2
# Processed by: cddbd v1.4b42PL0 Copyright (c) Steve Scherf et al.
# Submitted via: CDex 1.40Beta5
#
DISCID=d40ffa1e
DTITLE=Roger Miller - The Best Of
DYEAR=1996
DGENRE=Country
TTITLE0=King Of The Road
TTITLE1=Dang Me
TTITLE2=Me And Bobbie McGee
TTITLE3=In The Summertime (You Don't Want My Love)
TTITLE4=Everything's Coming Up Rose's
TTITLE5=Walkin' In The Sunshine
TTITLE6=Little Green Apples
TTITLE7=Chug-A-Lug
TTITLE8=Husbands And Wives
TTITLE9=It Happened Just That Way
TTITLE10=When Two Worlds Collide
TTITLE11=Do Wacka Do
TTITLE12=Heartaches By The Number
TTITLE13=My Uncle Used To Love Me (But She Died)
TTITLE14=If You Want Me To
TTITLE15=I Catch Myself Crying
TTITLE16=Billy Bayou
TTITLE17=Burning Bridges
TTITLE18=Engine Engine #9
TTITLE19=Release Me
TTITLE20=Early In The Morning
TTITLE21=Every Which-A-Way
TTITLE22=My Elusive Dreams
TTITLE23=Kansas City Star
TTITLE24=Trouble On The Turnpike
TTITLE25=Footprints In The Snow
TTITLE26=You Can't Rollerskate In A Buffalo Herd
TTITLE27=One Dyin' And A-Buryin'
TTITLE28=A Part Of Me
TTITLE29=England Swings
EXTD=YEAR: 1996 ID3G:   2
EXTT0=
EXTT1=
EXTT2=
EXTT3=
EXTT4=
EXTT5=
EXTT6=
EXTT7=
EXTT8=
EXTT9=
EXTT10=
EXTT11=
EXTT12=
EXTT13=
EXTT14=
EXTT15=
EXTT16=
EXTT17=
EXTT18=
EXTT19=
EXTT20=
EXTT21=
EXTT22=
EXTT23=
EXTT24=
EXTT25=
EXTT26=
EXTT27=
EXTT28=
EXTT29=
PLAYORDER=
